<?xml version="1.0" encoding="UTF-8"?><svg id="Layer_1" xmlns="http://www.w3.org/2000/svg" viewBox="0 0 14.01 14.01"><defs><style>.cls-1{fill:#ffefd1;}.cls-2{fill:#2b1313;}</style></defs><g id="_01_-_PS"><rect class="cls-2" width="14.01" height="14.01" rx="3" ry="3"/><path class="cls-1" d="M4.65,3.7v6.88h-1.29V3.7h1.29Z"/><path class="cls-1" d="M10.64,3.29v7.3h-1.16c-.03-.2-.05-.4-.06-.6-.27.45-.74.73-1.53.73-1.3,0-2.13-1.07-2.13-2.65s.88-2.73,2.31-2.73c.79,0,1.19.3,1.31.55v-2.61h1.26ZM7.06,8.04c0,1.08.45,1.65,1.19,1.65,1.05,0,1.21-.83,1.21-1.7,0-.97-.16-1.65-1.16-1.65-.8.02-1.23.64-1.23,1.7h-.01Z"/></g></svg>