<?xml version="1.0" encoding="UTF-8"?><svg id="Layer_1" xmlns="http://www.w3.org/2000/svg" viewBox="0 0 14.01 14.01"><defs><style>.cls-1{fill:#2b1111;}.cls-2{fill:#ffeed0;}</style></defs><g id="_01_-_PS"><rect class="cls-1" width="14.01" height="14.01" rx="3" ry="3"/><path class="cls-2" d="M1.95,3.5h2.77c1.42,0,2.39.8,2.39,2.09,0,1.45-1.08,2.14-2.43,2.14h-1.43v2.66h-1.3V3.5ZM3.25,6.68h1.28c.78,0,1.26-.33,1.26-1.07s-.54-1.07-1.24-1.07h-1.3v2.14Z"/><path class="cls-2" d="M8.9,8.87c.12.47.58.78,1.07.72.6,0,.83-.23.83-.59s-.22-.54-1.04-.74c-1.6-.39-1.88-.88-1.88-1.6s.53-1.51,2-1.51,2,.83,2.06,1.52h-1.19c-.06-.24-.22-.63-.93-.63-.55,0-.73.25-.73.52s.18.45,1.04.65c1.65.39,1.92.95,1.92,1.71,0,.86-.67,1.59-2.13,1.59s-2.12-.72-2.24-1.63h1.22Z"/></g></svg>