<?xml version="1.0" encoding="UTF-8"?><svg id="Layer_1" xmlns="http://www.w3.org/2000/svg" viewBox="0 0 22.07 19.25"><defs><style>.cls-1{font-family:BeVietnamPro-Regular, 'Be Vietnam Pro';font-size:4.32px;}.cls-1,.cls-2{fill:#2b1111;}.cls-3{letter-spacing:-.09em;}.cls-4{letter-spacing:-.02em;}.cls-5{letter-spacing:0em;}</style></defs><path class="cls-2" d="M11.37.02s.04,0,.07,0h2.3s.04,0,.05,0c.28-.03.55-.03.82,0,.01,0,.02,0,.03,0,.38.02.74.12,1.06.29,0,0,.02.01.03.01.63.29,1.18.75,1.57,1.35.74,1.14.79,2.58.15,3.75l-3.21-3.26c-.09-.1-.22-.15-.36-.15h-1.33c-.11,0-.22.04-.3.1l-2.15,1.63c-.49.37-1.19.28-1.56-.21-.05-.06-.09-.12-.12-.19-.22-.46-.1-1.03.33-1.35L11.37.02Z"/><path class="cls-2" d="M7.38,8.87h-.01s-.76.77-.76.77h-.01c-.23.23-.6.23-.83,0-.23-.23-.23-.61,0-.84l.76-.76s.06-.05.09-.08c.23-.15.55-.13.75.08.23.23.23.59.01.83Z"/><path class="cls-2" d="M7.3,10.37c-.22.23-.22.6.01.83.23.23.61.23.85,0l.76-.76c.23-.23.23-.61,0-.84-.03-.03-.06-.05-.09-.07-.23-.15-.54-.13-.74.06h-.01s-.76.77-.76.77h-.01Z"/><path class="cls-2" d="M5.49,6.81c.23.23.23.61,0,.84l-.76.76c-.23.23-.61.23-.85,0-.23-.23-.23-.61,0-.84l.76-.76c.23-.23.61-.23.85,0Z"/><path class="cls-2" d="M10.48,11.14c.23.23.23.61,0,.84l-.76.76s-.07.06-.11.09c-.23.14-.54.11-.74-.09-.2-.2-.23-.5-.09-.73h0s.05-.08.08-.11l.76-.76c.23-.23.61-.23.85,0Z"/><path class="cls-2" d="M5.28,1.41C6.45.25,8.07-.18,9.58.12l-1.44,1.09c-.93.7-1.11,2.02-.4,2.95.71.92,2.03,1.1,2.96.4l2.01-1.53h.91l1.94,1.93h0s1.61,1.62,1.61,1.62c0,0,.02.02.02.02l.86.86c.4.4.4,1.04,0,1.44-.37.37-.97.4-1.37.07l-.07-.07s-.03-.03-.05-.05l-.85-.85c-.2-.2-.51-.2-.71,0s-.2.51,0,.71l.9.9s.07.07.1.1l.03.03c.27.27.27.71,0,.98-.27.27-.71.27-.98,0l-.13-.13c-.2-.2-.51-.2-.71,0-.1.1-.15.23-.15.36,0,.13.05.26.15.36l.17.17c.25.25.25.65,0,.89s-.65.25-.89,0l-.09-.09s-.06-.07-.1-.1l-.16-.16c-.2-.2-.51-.2-.71,0-.2.2-.2.51,0,.71l.12.12s.03.04.05.06l.05.05c.19.25.17.62-.06.85-.25.25-.65.25-.9.01l-.86-.81.33-.33c.63-.62.63-1.63,0-2.25-.3-.3-.69-.45-1.09-.47-.01-.39-.17-.78-.47-1.08-.3-.3-.69-.45-1.09-.47-.01-.39-.17-.78-.47-1.08-.39-.39-.93-.53-1.44-.44-.06-.29-.21-.57-.43-.8-.59-.58-1.52-.62-2.15-.11-.44-1.58-.03-3.35,1.22-4.59Z"/><text class="cls-1" transform="translate(0 18.11)"><tspan class="cls-3" x="0" y="0">T</tspan><tspan class="cls-5" x="2.42" y="0">e</tspan><tspan x="4.99" y="0">a</tspan><tspan class="cls-4" x="7.76" y="0">mw</tspan><tspan x="15.2" y="0">ork</tspan></text></svg>